<svg width="429" height="178" viewBox="0 0 429 178" fill="none" xmlns="http://www.w3.org/2000/svg">
<path d="M11.1399 151.1L7.33992 162.02L3.53992 151.1H0.879916L5.77992 165H8.89992L13.7999 151.1H11.1399ZM19.1159 165.24C22.3959 165.24 24.7359 162.88 24.7359 159.74C24.7359 156.58 22.3959 154.22 19.1159 154.22C15.8159 154.22 13.4959 156.58 13.4959 159.74C13.4959 162.88 15.8159 165.24 19.1159 165.24ZM19.1359 162.98C17.2959 162.98 16.0359 161.62 16.0359 159.74C16.0359 157.84 17.2959 156.5 19.1359 156.5C20.9559 156.5 22.1759 157.84 22.1759 159.72C22.1759 161.62 20.9359 162.98 19.1359 162.98ZM31.7154 165.24C34.5154 165.24 36.2754 163.48 36.7554 161.88L34.4754 160.96C34.1354 162.16 33.1354 162.98 31.7754 162.98C30.0754 162.98 28.7554 161.7 28.7554 159.74C28.7554 157.78 30.0754 156.5 31.7554 156.5C33.1154 156.5 34.0754 157.32 34.4154 158.54L36.6954 157.64C36.2154 156 34.4554 154.24 31.7154 154.24C28.5354 154.24 26.2154 156.64 26.2154 159.76C26.2154 162.88 28.5754 165.24 31.7154 165.24ZM43.3193 150.86L44.8593 152.94H47.0993L44.4393 149.28H42.2593L39.5393 152.94H41.7793L43.3193 150.86ZM40.3593 160.54H48.5393C48.5793 160.32 48.5993 159.92 48.5993 159.52C48.5993 156.82 46.5793 154.22 43.2593 154.22C40.2393 154.22 37.8593 156.68 37.8593 159.74C37.8593 162.88 40.0593 165.26 43.4193 165.26C45.9793 165.26 47.3793 164.18 48.1793 162.88L46.1793 161.6C45.6993 162.54 44.9393 163.08 43.4993 163.08C41.9193 163.08 40.6993 162.12 40.3593 160.54ZM40.3593 158.76C40.6793 157.14 41.8393 156.22 43.3193 156.22C44.7993 156.22 45.8793 157.18 46.1593 158.76H40.3593ZM63.0154 154.46V155.96C62.2354 154.94 61.0554 154.38 59.5354 154.38C56.5154 154.38 54.3154 156.58 54.3154 159.74C54.3154 162.88 56.5154 165.24 59.5354 165.24C61.0554 165.24 62.2354 164.62 63.0154 163.58V165H65.3754V154.46H63.0154ZM59.8754 163C58.1354 163 56.8554 161.62 56.8554 159.74C56.8554 157.86 58.1354 156.48 59.8754 156.48C61.6954 156.48 62.9354 157.8 62.9354 159.74C62.9354 161.66 61.6954 163 59.8754 163ZM69.2065 152.78C70.1865 152.78 70.9465 152.08 70.9465 151.1C70.9465 150.12 70.1865 149.38 69.2065 149.38C68.2265 149.38 67.4665 150.12 67.4665 151.1C67.4665 152.08 68.2265 152.78 69.2065 152.78ZM67.9265 165H70.4665V154.46H67.9265V165ZM78.7488 154.22C77.3088 154.22 76.1488 154.8 75.4288 155.62V154.46H73.0288V165H75.5688V158.66C75.5888 157.48 76.6288 156.5 78.0088 156.48C79.4488 156.48 80.3888 157.38 80.3888 158.9V165H82.9488V158.42C82.9488 155.92 81.3488 154.22 78.7488 154.22ZM93.3768 150.38V155.62C92.5568 154.74 91.4168 154.22 90.0168 154.22C86.9968 154.22 84.8568 156.58 84.8568 159.74C84.8568 162.88 87.0568 165.24 90.0768 165.24C91.5568 165.24 92.7368 164.66 93.5568 163.66V165H95.9168V150.38H93.3768ZM90.4168 163C88.6768 163 87.3968 161.62 87.3968 159.74C87.3968 157.86 88.6768 156.48 90.4168 156.48C92.2368 156.48 93.4768 157.8 93.4768 159.74C93.4768 161.66 92.2368 163 90.4168 163ZM106.628 154.46V155.96C105.848 154.94 104.668 154.38 103.148 154.38C100.128 154.38 97.9279 156.58 97.9279 159.74C97.9279 162.88 100.128 165.24 103.148 165.24C104.668 165.24 105.848 164.62 106.628 163.58V165H108.988V154.46H106.628ZM103.488 163C101.748 163 100.468 161.62 100.468 159.74C100.468 157.86 101.748 156.48 103.488 156.48C105.308 156.48 106.548 157.8 106.548 159.74C106.548 161.66 105.308 163 103.488 163ZM121.58 154.22C120.14 154.22 118.98 154.8 118.26 155.62V154.46H115.86V165H118.4V158.66C118.42 157.48 119.46 156.5 120.84 156.48C122.28 156.48 123.22 157.38 123.22 158.9V165H125.78V158.42C125.78 155.92 124.18 154.22 121.58 154.22ZM132.448 151.64C133.308 151.64 133.728 152.62 135.008 152.62C136.428 152.62 137.068 151.48 137.348 150.38L135.588 149.62C135.468 150.18 135.108 150.52 134.608 150.52C133.688 150.52 133.308 149.54 132.068 149.54C130.648 149.54 129.968 150.74 129.708 151.78L131.468 152.52C131.588 151.98 131.948 151.64 132.448 151.64ZM136.388 154.46V155.96C135.608 154.94 134.428 154.38 132.908 154.38C129.888 154.38 127.688 156.58 127.688 159.74C127.688 162.88 129.888 165.24 132.908 165.24C134.428 165.24 135.608 164.62 136.388 163.58V165H138.748V154.46H136.388ZM133.248 163C131.508 163 130.228 161.62 130.228 159.74C130.228 157.86 131.508 156.48 133.248 156.48C135.068 156.48 136.308 157.8 136.308 159.74C136.308 161.66 135.068 163 133.248 163ZM146.379 165.24C149.659 165.24 151.999 162.88 151.999 159.74C151.999 156.58 149.659 154.22 146.379 154.22C143.079 154.22 140.759 156.58 140.759 159.74C140.759 162.88 143.079 165.24 146.379 165.24ZM146.399 162.98C144.559 162.98 143.299 161.62 143.299 159.74C143.299 157.84 144.559 156.5 146.399 156.5C148.219 156.5 149.439 157.84 149.439 159.72C149.439 161.62 148.199 162.98 146.399 162.98ZM164.24 154.22C162.74 154.22 161.52 154.82 160.7 155.84V154.46H158.34V168.58H160.88V163.88C161.68 164.74 162.8 165.24 164.18 165.24C167.2 165.24 169.4 162.88 169.4 159.74C169.4 156.58 167.26 154.22 164.24 154.22ZM163.84 163C162.02 163 160.78 161.66 160.78 159.74C160.78 157.82 162.02 156.48 163.84 156.48C165.58 156.48 166.86 157.86 166.86 159.74C166.86 161.6 165.58 163 163.84 163ZM176.491 165.24C179.771 165.24 182.111 162.88 182.111 159.74C182.111 156.58 179.771 154.22 176.491 154.22C173.191 154.22 170.871 156.58 170.871 159.74C170.871 162.88 173.191 165.24 176.491 165.24ZM176.511 162.98C174.671 162.98 173.411 161.62 173.411 159.74C173.411 157.84 174.671 156.5 176.511 156.5C178.331 156.5 179.551 157.84 179.551 159.72C179.551 161.62 178.311 162.98 176.511 162.98ZM187.792 165.24C190.432 165.24 192.152 164 192.152 161.9C192.152 158.04 186.372 159.14 186.372 157.22C186.372 156.58 186.872 156.18 187.812 156.18C188.692 156.18 189.312 156.56 189.592 157.36L191.812 156.5C191.372 155.06 189.892 154.22 187.852 154.22C185.372 154.22 183.772 155.42 183.772 157.34C183.772 160.96 189.552 160 189.552 162.08C189.552 162.82 188.912 163.24 187.892 163.24C186.612 163.24 185.792 162.66 185.492 161.68L183.272 162.54C183.852 164.32 185.512 165.24 187.792 165.24ZM197.777 165.24C200.417 165.24 202.137 164 202.137 161.9C202.137 158.04 196.357 159.14 196.357 157.22C196.357 156.58 196.857 156.18 197.797 156.18C198.677 156.18 199.297 156.56 199.577 157.36L201.797 156.5C201.357 155.06 199.877 154.22 197.837 154.22C195.357 154.22 193.757 155.42 193.757 157.34C193.757 160.96 199.537 160 199.537 162.08C199.537 162.82 198.897 163.24 197.877 163.24C196.597 163.24 195.777 162.66 195.477 161.68L193.257 162.54C193.837 164.32 195.497 165.24 197.777 165.24ZM211.122 154.46V160.84C211.122 162 210.202 162.96 208.782 162.98C207.362 162.98 206.462 162.04 206.462 160.68V154.46H203.922V161C203.922 163.44 205.362 165.24 208.042 165.24C209.402 165.24 210.542 164.66 211.282 163.84V165H213.662V154.46H211.122ZM217.495 152.78C218.475 152.78 219.235 152.08 219.235 151.1C219.235 150.12 218.475 149.38 217.495 149.38C216.515 149.38 215.755 150.12 215.755 151.1C215.755 152.08 216.515 152.78 217.495 152.78ZM216.215 165H218.755V154.46H216.215V165ZM229.909 165H231.569V162.78H230.409C229.269 162.78 228.649 162.12 228.649 160.9V156.64H231.489V154.46H228.729V151.72H226.249V153.38C226.249 154.1 225.909 154.46 225.209 154.46H224.249V156.64H226.089V161.18C226.089 163.5 227.389 165 229.909 165ZM241.166 154.46V155.96C240.386 154.94 239.206 154.38 237.686 154.38C234.666 154.38 232.466 156.58 232.466 159.74C232.466 162.88 234.666 165.24 237.686 165.24C239.206 165.24 240.386 164.62 241.166 163.58V165H243.526V154.46H241.166ZM238.026 163C236.286 163 235.006 161.62 235.006 159.74C235.006 157.86 236.286 156.48 238.026 156.48C239.846 156.48 241.086 157.8 241.086 159.74C241.086 161.66 239.846 163 238.026 163ZM248.477 155.64V154.46H246.077V165H248.617V159C248.617 157.58 249.777 156.6 251.617 156.6V154.22C250.297 154.22 249.197 154.8 248.477 155.64ZM254.818 160.54H262.998C263.038 160.32 263.058 159.92 263.058 159.52C263.058 156.82 261.038 154.22 257.718 154.22C254.698 154.22 252.318 156.68 252.318 159.74C252.318 162.88 254.518 165.26 257.878 165.26C260.438 165.26 261.838 164.18 262.638 162.88L260.638 161.6C260.158 162.54 259.398 163.08 257.958 163.08C256.378 163.08 255.158 162.12 254.818 160.54ZM254.818 158.76C255.138 157.14 256.298 156.22 257.778 156.22C259.258 156.22 260.338 157.18 260.618 158.76H254.818ZM270.018 152.14H270.658V150.14H269.918C267.138 150.14 265.658 151.74 265.658 154.32V154.46H263.938V156.64H265.658V165H268.198V156.64H270.618V154.46H268.198V154.06C268.198 152.86 268.858 152.14 270.018 152.14ZM280.091 154.46V155.96C279.311 154.94 278.131 154.38 276.611 154.38C273.591 154.38 271.391 156.58 271.391 159.74C271.391 162.88 273.591 165.24 276.611 165.24C278.131 165.24 279.311 164.62 280.091 163.58V165H282.451V154.46H280.091ZM276.951 163C275.211 163 273.931 161.62 273.931 159.74C273.931 157.86 275.211 156.48 276.951 156.48C278.771 156.48 280.011 157.8 280.011 159.74C280.011 161.66 278.771 163 276.951 163ZM288.722 165.24C291.362 165.24 293.082 164 293.082 161.9C293.082 158.04 287.302 159.14 287.302 157.22C287.302 156.58 287.802 156.18 288.742 156.18C289.622 156.18 290.242 156.56 290.522 157.36L292.742 156.5C292.302 155.06 290.822 154.22 288.782 154.22C286.302 154.22 284.702 155.42 284.702 157.34C284.702 160.96 290.482 160 290.482 162.08C290.482 162.82 289.842 163.24 288.822 163.24C287.542 163.24 286.722 162.66 286.422 161.68L284.202 162.54C284.782 164.32 286.442 165.24 288.722 165.24ZM304.269 165.24C307.069 165.24 308.829 163.48 309.309 161.88L307.029 160.96C306.689 162.16 305.689 162.98 304.329 162.98C302.629 162.98 301.309 161.7 301.309 159.74C301.309 157.78 302.629 156.5 304.309 156.5C305.669 156.5 306.629 157.32 306.969 158.54L309.249 157.64C308.769 156 307.009 154.24 304.269 154.24C301.089 154.24 298.769 156.64 298.769 159.76C298.769 162.88 301.129 165.24 304.269 165.24ZM319.172 154.46V155.96C318.392 154.94 317.212 154.38 315.692 154.38C312.672 154.38 310.472 156.58 310.472 159.74C310.472 162.88 312.672 165.24 315.692 165.24C317.212 165.24 318.392 164.62 319.172 163.58V165H321.532V154.46H319.172ZM316.032 163C314.292 163 313.012 161.62 313.012 159.74C313.012 157.86 314.292 156.48 316.032 156.48C317.852 156.48 319.092 157.8 319.092 159.74C319.092 161.66 317.852 163 316.032 163ZM332.064 150.38V155.62C331.244 154.74 330.104 154.22 328.704 154.22C325.684 154.22 323.544 156.58 323.544 159.74C323.544 162.88 325.744 165.24 328.764 165.24C330.244 165.24 331.424 164.66 332.244 163.66V165H334.604V150.38H332.064ZM329.104 163C327.364 163 326.084 161.62 326.084 159.74C326.084 157.86 327.364 156.48 329.104 156.48C330.924 156.48 332.164 157.8 332.164 159.74C332.164 161.66 330.924 163 329.104 163ZM345.315 154.46V155.96C344.535 154.94 343.355 154.38 341.835 154.38C338.815 154.38 336.615 156.58 336.615 159.74C336.615 162.88 338.815 165.24 341.835 165.24C343.355 165.24 344.535 164.62 345.315 163.58V165H347.675V154.46H345.315ZM342.175 163C340.435 163 339.155 161.62 339.155 159.74C339.155 157.86 340.435 156.48 342.175 156.48C343.995 156.48 345.235 157.8 345.235 159.74C345.235 161.66 343.995 163 342.175 163ZM353.946 165.24C356.586 165.24 358.306 164 358.306 161.9C358.306 158.04 352.526 159.14 352.526 157.22C352.526 156.58 353.026 156.18 353.966 156.18C354.846 156.18 355.466 156.56 355.746 157.36L357.966 156.5C357.526 155.06 356.046 154.22 354.006 154.22C351.526 154.22 349.926 155.42 349.926 157.34C349.926 160.96 355.706 160 355.706 162.08C355.706 162.82 355.066 163.24 354.046 163.24C352.766 163.24 351.946 162.66 351.646 161.68L349.426 162.54C350.006 164.32 351.666 165.24 353.946 165.24ZM364.735 165H366.395V162.78H365.235C364.095 162.78 363.475 162.12 363.475 160.9V156.64H366.315V154.46H363.555V151.72H361.075V153.38C361.075 154.1 360.735 154.46 360.035 154.46H359.075V156.64H360.915V161.18C360.915 163.5 362.215 165 364.735 165ZM370.467 155.64V154.46H368.067V165H370.607V159C370.607 157.58 371.767 156.6 373.607 156.6V154.22C372.287 154.22 371.187 154.8 370.467 155.64ZM383.068 154.46V155.96C382.288 154.94 381.108 154.38 379.588 154.38C376.568 154.38 374.368 156.58 374.368 159.74C374.368 162.88 376.568 165.24 379.588 165.24C381.108 165.24 382.288 164.62 383.068 163.58V165H385.428V154.46H383.068ZM379.928 163C378.188 163 376.908 161.62 376.908 159.74C376.908 157.86 378.188 156.48 379.928 156.48C381.748 156.48 382.988 157.8 382.988 159.74C382.988 161.66 381.748 163 379.928 163ZM395.959 150.38V155.62C395.139 154.74 393.999 154.22 392.599 154.22C389.579 154.22 387.439 156.58 387.439 159.74C387.439 162.88 389.639 165.24 392.659 165.24C394.139 165.24 395.319 164.66 396.139 163.66V165H398.499V150.38H395.959ZM392.999 163C391.259 163 389.979 161.62 389.979 159.74C389.979 157.86 391.259 156.48 392.999 156.48C394.819 156.48 396.059 157.8 396.059 159.74C396.059 161.66 394.819 163 392.999 163ZM409.21 154.46V155.96C408.43 154.94 407.25 154.38 405.73 154.38C402.71 154.38 400.51 156.58 400.51 159.74C400.51 162.88 402.71 165.24 405.73 165.24C407.25 165.24 408.43 164.62 409.21 163.58V165H411.57V154.46H409.21ZM406.07 163C404.33 163 403.05 161.62 403.05 159.74C403.05 157.86 404.33 156.48 406.07 156.48C407.89 156.48 409.13 157.8 409.13 159.74C409.13 161.66 407.89 163 406.07 163ZM417.841 165.24C420.481 165.24 422.201 164 422.201 161.9C422.201 158.04 416.421 159.14 416.421 157.22C416.421 156.58 416.921 156.18 417.861 156.18C418.741 156.18 419.361 156.56 419.641 157.36L421.861 156.5C421.421 155.06 419.941 154.22 417.901 154.22C415.421 154.22 413.821 155.42 413.821 157.34C413.821 160.96 419.601 160 419.601 162.08C419.601 162.82 418.961 163.24 417.941 163.24C416.661 163.24 415.841 162.66 415.541 161.68L413.321 162.54C413.901 164.32 415.561 165.24 417.841 165.24ZM424.526 160.38H426.566L427.026 150.38H424.106L424.526 160.38ZM425.566 165.2C426.426 165.2 427.066 164.54 427.066 163.72C427.066 162.84 426.426 162.2 425.566 162.2C424.706 162.2 424.066 162.84 424.066 163.72C424.066 164.54 424.706 165.2 425.566 165.2Z" fill="#ED1164"/>
<path d="M22.2563 34.4415H51.1917V26.4985H22.2563V34.4415ZM72.6731 100.728H81.5617L63.1225 28.7679H54.3284L72.6731 100.728ZM87.8536 106.307H132.391V98.175H87.8536V106.307ZM159.668 106.685L166.193 100.161C156.264 92.3123 149.078 80.6814 149.078 64.2279C149.078 47.7745 156.264 36.2382 166.193 28.2951L159.668 21.7705C148.51 30.0918 139.527 44.3703 139.527 64.2279C139.527 84.0855 148.51 98.3641 159.668 106.685ZM210.932 24.891L203.651 27.3495C206.015 32.2667 211.405 46.9235 212.917 52.3134L220.293 49.7603C218.686 44.4649 213.012 29.4299 210.932 24.891ZM252.916 30.9428L244.217 28.4843C242.326 42.6683 236.557 57.7979 229.087 67.3484C219.537 79.4521 205.447 88.5299 191.925 92.5014L198.45 99.1206C211.783 94.3926 225.778 84.6529 235.517 71.7927C243.271 61.5803 248.377 48.0582 251.214 36.3327C251.593 34.8198 252.254 32.5503 252.916 30.9428ZM184.549 30.5646L177.079 33.3068C179.349 37.3729 185.873 53.3535 187.67 59.2163L195.14 56.474C192.965 50.3276 187.008 35.8599 184.549 30.5646ZM270.41 106.685C281.663 98.3641 290.551 84.0855 290.551 64.2279C290.551 44.3703 281.663 30.0918 270.41 21.7705L263.885 28.2951C273.909 36.2382 281.001 47.7745 281.001 64.2279C281.001 80.6814 273.909 92.3123 263.885 100.161L270.41 106.685ZM297.655 106.307H342.193V98.175H297.655V106.307ZM348.666 100.728H357.555L375.616 28.7679H366.917L348.666 100.728ZM382.574 34.4415H411.51V26.4985H382.574V34.4415Z" fill="#ED1164"/>
</svg>
